<svg width="86" height="86" viewBox="0 0 86 86" fill="none" xmlns="http://www.w3.org/2000/svg">
<rect width="86" height="86" rx="43" fill="#F6585E"/>
<path d="M43 12C55.2891 12 65.9067 19.1512 70.9211 29.519C72.5261 32.8375 73.3976 38.0701 70 39.5V39.5C68.3127 40.2101 66.986 40.2629 65.335 39.6641V39.6641C65.112 39.5789 64.8962 39.4762 64.6895 39.3569L35 22.2158C32.3333 20.6762 29 22.6005 29 25.6797V60.3203C29 63.3995 32.3333 65.3238 35 63.7842L65 46.4639C66.8104 45.7324 68.2003 45.7425 70 46.5V46.5C73.3971 47.9297 72.5262 53.1612 70.9217 56.4793C65.9076 66.848 55.2898 74 43 74C25.8792 74 12 60.1208 12 43C12 25.8792 25.8792 12 43 12Z" fill="#F8F8ED"/>
</svg>
